<?xml version="1.0" encoding="UTF-8" standalone="no"?>
<!-- Created with Inkscape (http://www.inkscape.org/) -->

<svg
   version="1.1"
   id="svg2"
   width="16"
   height="16"
   viewBox="0 0 16 16"
   sodipodi:docname="refresh.svg"
   inkscape:version="1.3.2 (091e20ef0f, 2023-11-25)"
   inkscape:export-filename="../../install/bitmaps/refresh.png"
   inkscape:export-xdpi="96"
   inkscape:export-ydpi="96"
   xmlns:inkscape="http://www.inkscape.org/namespaces/inkscape"
   xmlns:sodipodi="http://sodipodi.sourceforge.net/DTD/sodipodi-0.dtd"
   xmlns="http://www.w3.org/2000/svg"
   xmlns:svg="http://www.w3.org/2000/svg"
   xmlns:rdf="http://www.w3.org/1999/02/22-rdf-syntax-ns#"
   xmlns:cc="http://creativecommons.org/ns#"
   xmlns:dc="http://purl.org/dc/elements/1.1/">
  <metadata
     id="metadata822">
    <rdf:RDF>
      <cc:Work
         rdf:about="">
        <dc:format>image/svg+xml</dc:format>
        <dc:type
           rdf:resource="http://purl.org/dc/dcmitype/StillImage" />
      </cc:Work>
    </rdf:RDF>
  </metadata>
  <defs
     id="defs6" />
  <sodipodi:namedview
     id="namedview4"
     pagecolor="#ffffff"
     bordercolor="#666666"
     borderopacity="1.0"
     inkscape:pageshadow="2"
     inkscape:pageopacity="0.0"
     inkscape:pagecheckerboard="0"
     showgrid="true"
     inkscape:current-layer="g8"
     inkscape:snap-bbox="true"
     inkscape:bbox-paths="true"
     inkscape:bbox-nodes="true"
     inkscape:showpageshadow="2"
     inkscape:deskcolor="#d1d1d1"
     inkscape:zoom="35.46875"
     inkscape:cx="2.7348018"
     inkscape:cy="9.4026432"
     inkscape:window-width="2560"
     inkscape:window-height="1372"
     inkscape:window-x="0"
     inkscape:window-y="40"
     inkscape:window-maximized="1">
    <inkscape:grid
       type="xygrid"
       id="grid907"
       empspacing="4"
       originx="0"
       originy="0"
       spacingy="1"
       spacingx="1"
       units="px"
       visible="true" />
  </sodipodi:namedview>
  <g
     inkscape:groupmode="layer"
     inkscape:label="Image"
     id="g8">
    <rect
       style="fill:none;stroke:none;stroke-width:2;stroke-linecap:square;-inkscape-stroke:none"
       id="rect1"
       width="19.403524"
       height="11.477709"
       x="-1"
       y="8" />
    <g
       id="path2"
       style="fill:#1c71d8">
      <path
         style="color:#000000;fill:#1c71d8;stroke-linecap:square;-inkscape-stroke:none"
         d="M 8,0 C 5.1875029,0 3.2885249,1.1169264 2.2109375,2.2714844 1.1333501,3.4260424 0.79296875,4.6777344 0.79296875,4.6777344 L 0.47070313,5.8847656 2.8847656,6.5292969 3.2070313,5.3222656 c 0,0 0.1596205,-0.6233099 0.8320312,-1.34375 C 4.7114732,3.2580755 5.8125023,2.5 8,2.5 c 2.166664,0 3.958984,2.4433594 3.958984,2.4433594 L 12.652344,5.984375 14.734375,4.5976562 14.041016,3.5566406 C 14.041016,3.5566406 11.833329,0 8,0 Z"
         id="path7" />
      <g
         id="g4"
         style="fill:#1c71d8">
        <g
           id="path4"
           style="fill:#1c71d8">
          <path
             style="color:#000000;fill:#1c71d8;fill-rule:evenodd;-inkscape-stroke:none"
             d="M 15.000388,7.2505809 9.4013825,4.4857484 14.601696,1.018871 Z"
             id="path5" />
          <path
             style="color:#000000;fill:#1c71d8;fill-rule:evenodd;-inkscape-stroke:none"
             d="M 14.970703,0.27148438 8.5703125,4.5390625 15.462891,7.9433594 Z m -0.738281,1.49414062 0.304687,4.7910156 -4.302734,-2.125 z"
             id="path6" />
        </g>
      </g>
    </g>
    <g
       id="path3"
       style="fill:#1c71d8">
      <path
         style="color:#000000;fill:#1c71d8;stroke-linecap:square;-inkscape-stroke:none"
         d="m 13.117188,9.46875 -0.324219,1.207031 c 0,0 -0.160802,0.627818 -0.835938,1.351563 -0.675135,0.723744 -1.778285,1.484375 -3.9648435,1.484375 -2.1458675,0 -3.953125,-2.507813 -3.953125,-2.507813 L 3.3574219,9.9570313 1.2617187,11.320313 1.9433594,12.367188 c 0,0 2.194703,3.644531 6.0488281,3.644531 2.8134355,0 4.7137845,-1.122413 5.7929685,-2.279297 1.079184,-1.156884 1.421875,-2.408203 1.421875,-2.408203 l 0.324219,-1.207031 z"
         id="path12" />
      <g
         id="g9"
         style="fill:#1c71d8">
        <g
           id="path9"
           style="fill:#1c71d8">
          <path
             style="color:#000000;fill:#1c71d8;fill-rule:evenodd;-inkscape-stroke:none"
             d="m 1.0250686,8.663359 5.5673449,2.828044 -5.2392306,3.40778 z"
             id="path10" />
          <path
             style="color:#000000;fill:#1c71d8;fill-rule:evenodd;-inkscape-stroke:none"
             d="M 0.5703125,7.9648437 0.97460938,15.642578 7.4257812,11.447266 Z m 0.9082031,1.3964844 4.28125,2.1757809 -4.0273437,2.621094 z"
             id="path11" />
        </g>
      </g>
    </g>
  </g>
</svg>
